{
	"asset":{
		"generator":"Khronos glTF Blender I/O v4.1.62",
		"version":"2.0"
	},
	"extensionsUsed":[
		"KHR_materials_specular",
		"KHR_materials_ior",
		"KHR_materials_emissive_strength"
	],
	"scene":0,
	"scenes":[
		{
			"name":"Scene",
			"nodes":[
				3
			]
		}
	],
	"nodes":[
		{
			"mesh":0,
			"name":"A FRAME",
			"rotation":[
				0.7071068286895752,
				0,
				0,
				0.7071067094802856
			],
			"scale":[
				0.8780487179756165,
				1.2345681190490723,
				0.8727275133132935
			],
			"translation":[
				0,
				-0.012121200561523438,
				-0.06172943115234375
			]
		},
		{
			"mesh":1,
			"name":"BACK",
			"rotation":[
				0,
				0.7071068286895752,
				-0.7071068286895752,
				2.1697713847856903e-08
			],
			"scale":[
				0.8130082488059998,
				1.2345681190490723,
				0.848484992980957
			],
			"translation":[
				0,
				-0.024242401123046875,
				-0.02469158172607422
			]
		},
		{
			"mesh":2,
			"name":"FRONT",
			"rotation":[
				0,
				0.7071068286895752,
				-0.7071068286895752,
				2.1697713847856903e-08
			],
			"scale":[
				0.8130082488059998,
				1.2345681190490723,
				0.848484992980957
			],
			"translation":[
				0,
				-0.024242401123046875,
				-0.03703784942626953
			]
		},
		{
			"children":[
				0,
				1,
				2
			],
			"name":"CARD",
			"scale":[
				1.2300000190734863,
				1.649999976158142,
				0.8100000023841858
			],
			"translation":[
				0,
				2.0899999141693115,
				6.557712554931641
			]
		}
	],
	"materials":[
		{
			"doubleSided":true,
			"extensions":{
				"KHR_materials_specular":{
					"specularFactor":0.8715596199035645,
					"specularColorFactor":[
						1.0,
						0.029633771628141403,
						0.0
					]
				},
				"KHR_materials_ior":{
					"ior":7.800002098083496
				}
			},
			"name":"FRAME.002",
			"pbrMetallicRoughness":{
				"roughnessFactor":0.056150197982788086
			}
		},
		{
			"doubleSided":true,
			"emissiveFactor":[
				0.7079963367043288,
				0,
				1
			],
			"extensions":{
				"KHR_materials_emissive_strength":{
					"emissiveStrength":6.885543741776985
				}
			},
			"name":"LIGHT",
			"pbrMetallicRoughness":{
				"baseColorFactor":[
					0,
					0,
					0,
					1
				],
				"metallicFactor":0.8240740895271301,
				"roughnessFactor":0
			}
		},
		{
			"doubleSided":true,
			"name":"BACK",
			"pbrMetallicRoughness":{
				"roughnessFactor":0.12844036519527435
			}
		},
		{
			"doubleSided":true,
			"name":"FRONT",
			"pbrMetallicRoughness":{
				"roughnessFactor":0.1376146674156189
			}
		}
	],
	"meshes":[
		{
			"name":"Plane",
			"primitives":[
				{
					"attributes":{
						"POSITION":0,
						"NORMAL":1,
						"TEXCOORD_0":2
					},
					"indices":3,
					"material":0
				},
				{
					"attributes":{
						"POSITION":4,
						"NORMAL":5,
						"TEXCOORD_0":6
					},
					"indices":7,
					"material":1
				}
			]
		},
		{
			"name":"Plane.003",
			"primitives":[
				{
					"attributes":{
						"POSITION":8,
						"NORMAL":9,
						"TEXCOORD_0":10
					},
					"indices":11,
					"material":2
				}
			]
		},
		{
			"name":"Plane.001",
			"primitives":[
				{
					"attributes":{
						"POSITION":12,
						"NORMAL":13,
						"TEXCOORD_0":14
					},
					"indices":11,
					"material":3
				}
			]
		}
	],
	"accessors":[
		{
			"bufferView":0,
			"componentType":5126,
			"count":226,
			"max":[
				1,
				0.05002610385417938,
				1
			],
			"min":[
				-1,
				0.004916870966553688,
				-1
			],
			"type":"VEC3"
		},
		{
			"bufferView":1,
			"componentType":5126,
			"count":226,
			"type":"VEC3"
		},
		{
			"bufferView":2,
			"componentType":5126,
			"count":226,
			"type":"VEC2"
		},
		{
			"bufferView":3,
			"componentType":5123,
			"count":438,
			"type":"SCALAR"
		},
		{
			"bufferView":4,
			"componentType":5126,
			"count":126,
			"max":[
				1,
				0.05002610385417938,
				1
			],
			"min":[
				-1,
				0.004916870966553688,
				-1
			],
			"type":"VEC3"
		},
		{
			"bufferView":5,
			"componentType":5126,
			"count":126,
			"type":"VEC3"
		},
		{
			"bufferView":6,
			"componentType":5126,
			"count":126,
			"type":"VEC2"
		},
		{
			"bufferView":7,
			"componentType":5123,
			"count":198,
			"type":"SCALAR"
		},
		{
			"bufferView":8,
			"componentType":5126,
			"count":4,
			"max":[
				1,
				0,
				1
			],
			"min":[
				-1,
				0,
				-1
			],
			"type":"VEC3"
		},
		{
			"bufferView":9,
			"componentType":5126,
			"count":4,
			"type":"VEC3"
		},
		{
			"bufferView":10,
			"componentType":5126,
			"count":4,
			"type":"VEC2"
		},
		{
			"bufferView":11,
			"componentType":5123,
			"count":6,
			"type":"SCALAR"
		},
		{
			"bufferView":12,
			"componentType":5126,
			"count":4,
			"max":[
				1,
				0,
				1
			],
			"min":[
				-1,
				0,
				-1
			],
			"type":"VEC3"
		},
		{
			"bufferView":13,
			"componentType":5126,
			"count":4,
			"type":"VEC3"
		},
		{
			"bufferView":14,
			"componentType":5126,
			"count":4,
			"type":"VEC2"
		}
	],
	"bufferViews":[
		{
			"buffer":0,
			"byteLength":2712,
			"byteOffset":0,
			"target":34962
		},
		{
			"buffer":0,
			"byteLength":2712,
			"byteOffset":2712,
			"target":34962
		},
		{
			"buffer":0,
			"byteLength":1808,
			"byteOffset":5424,
			"target":34962
		},
		{
			"buffer":0,
			"byteLength":876,
			"byteOffset":7232,
			"target":34963
		},
		{
			"buffer":0,
			"byteLength":1512,
			"byteOffset":8108,
			"target":34962
		},
		{
			"buffer":0,
			"byteLength":1512,
			"byteOffset":9620,
			"target":34962
		},
		{
			"buffer":0,
			"byteLength":1008,
			"byteOffset":11132,
			"target":34962
		},
		{
			"buffer":0,
			"byteLength":396,
			"byteOffset":12140,
			"target":34963
		},
		{
			"buffer":0,
			"byteLength":48,
			"byteOffset":12536,
			"target":34962
		},
		{
			"buffer":0,
			"byteLength":48,
			"byteOffset":12584,
			"target":34962
		},
		{
			"buffer":0,
			"byteLength":32,
			"byteOffset":12632,
			"target":34962
		},
		{
			"buffer":0,
			"byteLength":12,
			"byteOffset":12664,
			"target":34963
		},
		{
			"buffer":0,
			"byteLength":48,
			"byteOffset":12676,
			"target":34962
		},
		{
			"buffer":0,
			"byteLength":48,
			"byteOffset":12724,
			"target":34962
		},
		{
			"buffer":0,
			"byteLength":32,
			"byteOffset":12772,
			"target":34962
		}
	],
	"buffers":[
		{
			"byteLength":12804,
			"uri":"NFT%20GUAP%20LAST%20VERSION1.bin"
		}
	]
}
